<?xml version='1.0' encoding='iso-8859-1'?>
<!DOCTYPE svg PUBLIC '-//W3C//DTD SVG 1.1//EN' 'http://www.w3.org/Graphics/SVG/1.1/DTD/svg11.dtd'>
<svg version="1.1" xmlns="http://www.w3.org/2000/svg" viewBox="0 0 297 297" xmlns:xlink="http://www.w3.org/1999/xlink" enable-background="new 0 0 297 297">
  <path d="m286.898,230.499h-12.022c-4.484-56.614-46.317-102.879-100.798-114.083 11.632-10.545 23.982-25.141 23.982-39.598 0-16.829-13.137-30.521-29.284-30.521-7.333,0-14.046,2.822-19.189,7.48-5.143-4.658-11.855-7.48-19.188-7.48-16.153,0-29.294,13.692-29.294,30.521 0,14.302 12.085,28.734 23.607,39.251-55.349,10.552-98.056,57.198-102.588,114.43h-12.022c-5.579,0-10.102,4.524-10.102,10.102 0,5.579 4.523,10.102 10.102,10.102h276.797c5.578,0 10.102-4.523 10.102-10.102-0.001-5.578-4.524-10.102-10.103-10.102zm-156.5-163.998c5.01,0 9.086,4.629 9.086,10.317 0,5.579 4.523,10.103 10.102,10.103 5.579,0 10.103-4.523 10.103-10.103 0-5.688 4.077-10.317 9.088-10.317 5.007,0 9.08,4.629 9.08,10.317 0,8.868-15.299,23.818-28.271,33.554-12.975-9.734-28.277-24.685-28.277-33.554-0.001-5.688 4.077-10.317 9.089-10.317zm18.102,67.524c55.358,0 100.987,42.429 106.093,96.474h-212.186c5.106-54.045 50.735-96.474 106.093-96.474z"/>
</svg>
