<svg width="13" height="16" viewBox="0 0 13 16" fill="none" xmlns="http://www.w3.org/2000/svg">
<rect x="0.5" y="5.5" width="12" height="10" rx="1.5" fill="white" stroke="black"/>
<circle cx="6.5" cy="9.5" r="1.5" fill="black"/>
<path d="M6 10H7L7.5 13H5.5L6 10Z" fill="black"/>
<path d="M10.5 4.07145C10.5 4.5611 10.3905 4.83762 10.2557 5.00586C10.1205 5.17448 9.90654 5.30101 9.56296 5.38384C9.21399 5.46797 8.77656 5.49624 8.24532 5.49963C7.98259 5.50131 7.70548 5.497 7.41168 5.49213L7.3705 5.49145C7.09078 5.4868 6.79713 5.48193 6.49634 5.48193C6.19546 5.48193 5.90183 5.4868 5.62222 5.49145L5.5813 5.49213C5.2877 5.497 5.01089 5.50131 4.7485 5.49963C4.21794 5.49624 3.78155 5.46797 3.43362 5.3839C3.09122 5.30116 2.87824 5.17484 2.74365 5.00644C2.6092 4.8382 2.5 4.56148 2.5 4.07145C2.5 2.14489 4.24261 0.5 6.5 0.5C8.75739 0.5 10.5 2.14489 10.5 4.07145Z" fill="white" stroke="black"/>
</svg>
