<svg width="50" height="50" viewBox="0 0 50 50" fill="none" xmlns="http://www.w3.org/2000/svg">
<g filter="url(#filter0_ii_58_253)">
<path d="M25.7391 44.4783C37.7453 44.4783 47.4783 34.9692 47.4783 23.2391C47.4783 11.5091 37.7453 2 25.7391 2C13.7329 2 4 11.5091 4 23.2391C4 34.9692 13.7329 44.4783 25.7391 44.4783Z" fill="#EEEEEE"/>
<path d="M25.7391 44.4783C37.7453 44.4783 47.4783 34.9692 47.4783 23.2391C47.4783 11.5091 37.7453 2 25.7391 2C13.7329 2 4 11.5091 4 23.2391C4 34.9692 13.7329 44.4783 25.7391 44.4783Z" stroke="#8A8A8A" stroke-opacity="0.8" stroke-width="3"/>
</g>
<g filter="url(#filter1_i_58_253)">
<path d="M23.2498 7.35218C24.3133 6.29322 26.0339 6.29691 27.0928 7.36039L40.4728 20.7978C41.5317 21.8613 41.528 23.5818 40.4646 24.6407L27.2925 37.7565C26.229 38.8155 24.5085 38.8118 23.4496 37.7483L10.0696 24.3109C9.01059 23.2475 9.01429 21.5269 10.0778 20.468L23.2498 7.35218Z" fill="#ABD793"/>
</g>
<path d="M15.0497 32.4413L27.3522 20.1902L15.0497 32.4413Z" fill="#323232"/>
<path d="M15.0497 32.4413L27.3522 20.1902" stroke="#454545" stroke-width="3"/>
<path d="M28.6619 15.4344L32.1133 18.9003L30.629 20.3785C29.536 21.4669 27.9632 21.6596 27.116 20.8089L26.7325 20.4238C25.8853 19.5731 26.0846 18.001 27.1776 16.9126L28.6619 15.4344Z" fill="#323232"/>
<path d="M35.224 13.1181L35.4158 13.3106L30.6598 18.4302L30.0846 17.8526L35.224 13.1181Z" fill="#323232"/>
<path d="M36.1828 14.0808L36.3745 14.2733L31.6186 19.393L31.0433 18.8153L36.1828 14.0808Z" fill="#323232"/>
<path d="M33.3066 11.1925L33.4983 11.3851L28.7423 16.5047L28.1671 15.9271L33.3066 11.1925Z" fill="#323232"/>
<path d="M34.2653 12.1553L34.457 12.3478L29.7011 17.4675L29.1258 16.8898L34.2653 12.1553Z" fill="#323232"/>
<path d="M20.6528 16.5504L18.4893 18.6287L21.0393 21.2832C21.7064 21.9777 22.7315 22.0754 23.3289 21.5015C23.9264 20.9276 23.8699 19.8994 23.2028 19.2049L20.6528 16.5504Z" fill="#393939"/>
<path d="M15.4616 11.1463C15.2155 10.8901 14.8145 10.8759 14.566 11.1146C14.3646 11.3082 14.3202 11.6162 14.4576 11.8686L16.4091 15.4557L18.3239 18.4189C18.7878 19.1368 19.7792 19.2701 20.3778 18.695L20.6437 18.4397C21.1676 17.9364 21.1717 17.0905 20.6528 16.5504L18.3041 14.1054L15.4616 11.1463Z" fill="#393939"/>
<rect width="2" height="17.6298" transform="matrix(-0.721165 0.692763 0.692763 0.721165 23.4713 19.4844)" fill="#393939"/>
<defs>
<filter id="filter0_ii_58_253" x="2.5" y="0.5" width="46.4783" height="49.4783" filterUnits="userSpaceOnUse" color-interpolation-filters="sRGB">
<feFlood flood-opacity="0" result="BackgroundImageFix"/>
<feBlend mode="normal" in="SourceGraphic" in2="BackgroundImageFix" result="shape"/>
<feColorMatrix in="SourceAlpha" type="matrix" values="0 0 0 0 0 0 0 0 0 0 0 0 0 0 0 0 0 0 127 0" result="hardAlpha"/>
<feOffset dy="4"/>
<feGaussianBlur stdDeviation="2"/>
<feComposite in2="hardAlpha" operator="arithmetic" k2="-1" k3="1"/>
<feColorMatrix type="matrix" values="0 0 0 0 0 0 0 0 0 0 0 0 0 0 0 0 0 0 0.25 0"/>
<feBlend mode="normal" in2="shape" result="effect1_innerShadow_58_253"/>
<feColorMatrix in="SourceAlpha" type="matrix" values="0 0 0 0 0 0 0 0 0 0 0 0 0 0 0 0 0 0 127 0" result="hardAlpha"/>
<feOffset dy="4"/>
<feGaussianBlur stdDeviation="2"/>
<feComposite in2="hardAlpha" operator="arithmetic" k2="-1" k3="1"/>
<feColorMatrix type="matrix" values="0 0 0 0 0 0 0 0 0 0 0 0 0 0 0 0 0 0 0.25 0"/>
<feBlend mode="normal" in2="effect1_innerShadow_58_253" result="effect2_innerShadow_58_253"/>
</filter>
<filter id="filter1_i_58_253" x="9.27774" y="6.56036" width="31.9868" height="35.988" filterUnits="userSpaceOnUse" color-interpolation-filters="sRGB">
<feFlood flood-opacity="0" result="BackgroundImageFix"/>
<feBlend mode="normal" in="SourceGraphic" in2="BackgroundImageFix" result="shape"/>
<feColorMatrix in="SourceAlpha" type="matrix" values="0 0 0 0 0 0 0 0 0 0 0 0 0 0 0 0 0 0 127 0" result="hardAlpha"/>
<feOffset dy="4"/>
<feGaussianBlur stdDeviation="2"/>
<feComposite in2="hardAlpha" operator="arithmetic" k2="-1" k3="1"/>
<feColorMatrix type="matrix" values="0 0 0 0 0 0 0 0 0 0 0 0 0 0 0 0 0 0 0.25 0"/>
<feBlend mode="normal" in2="shape" result="effect1_innerShadow_58_253"/>
</filter>
</defs>
</svg>
