<svg width="205" height="39" viewBox="0 0 205 39" fill="none" xmlns="http://www.w3.org/2000/svg">
<g filter="url(#filter0_d_3_159)">
<path d="M19.44 25C18.0107 22.4613 16.464 19.9547 14.8 17.48C13.136 15.0053 11.3653 12.6693 9.488 10.472V25H4.56V2.824H8.624C9.328 3.528 10.1067 4.392 10.96 5.416C11.8133 6.44 12.6773 7.53867 13.552 8.712C14.448 9.864 15.3333 11.0693 16.208 12.328C17.0827 13.5653 17.904 14.76 18.672 15.912V2.824H23.632V25H19.44ZM34.8595 21.672C35.3288 21.672 35.7768 21.6613 36.2035 21.64C36.6302 21.6187 36.9715 21.5867 37.2275 21.544V17.928C37.0355 17.8853 36.7475 17.8427 36.3635 17.8C35.9795 17.7573 35.6275 17.736 35.3075 17.736C34.8595 17.736 34.4328 17.768 34.0275 17.832C33.6435 17.8747 33.3022 17.9707 33.0035 18.12C32.7048 18.2693 32.4702 18.472 32.2995 18.728C32.1288 18.984 32.0435 19.304 32.0435 19.688C32.0435 20.4347 32.2888 20.9573 32.7795 21.256C33.2915 21.5333 33.9848 21.672 34.8595 21.672ZM34.4755 7.72C35.8835 7.72 37.0568 7.88 37.9955 8.2C38.9342 8.52 39.6808 8.97867 40.2355 9.576C40.8115 10.1733 41.2168 10.8987 41.4515 11.752C41.6862 12.6053 41.8035 13.5547 41.8035 14.6V24.52C41.1208 24.6693 40.1715 24.84 38.9555 25.032C37.7395 25.2453 36.2675 25.352 34.5395 25.352C33.4515 25.352 32.4595 25.256 31.5635 25.064C30.6888 24.872 29.9315 24.5627 29.2915 24.136C28.6515 23.688 28.1608 23.112 27.8195 22.408C27.4782 21.704 27.3075 20.84 27.3075 19.816C27.3075 18.8347 27.4995 18.0027 27.8835 17.32C28.2888 16.6373 28.8222 16.0933 29.4835 15.688C30.1448 15.2827 30.9022 14.9947 31.7555 14.824C32.6088 14.632 33.4942 14.536 34.4115 14.536C35.0302 14.536 35.5742 14.568 36.0435 14.632C36.5342 14.6747 36.9288 14.7387 37.2275 14.824V14.376C37.2275 13.5653 36.9822 12.9147 36.4915 12.424C36.0008 11.9333 35.1475 11.688 33.9315 11.688C33.1208 11.688 32.3208 11.752 31.5315 11.88C30.7422 11.9867 30.0595 12.1467 29.4835 12.36L28.8755 8.52C29.1528 8.43467 29.4942 8.34933 29.8995 8.264C30.3262 8.15733 30.7848 8.072 31.2755 8.008C31.7662 7.92267 32.2782 7.85867 32.8115 7.816C33.3662 7.752 33.9208 7.72 34.4755 7.72ZM56.899 16.712C56.899 15.24 56.5683 14.0667 55.907 13.192C55.2457 12.296 54.2643 11.848 52.963 11.848C52.5363 11.848 52.1417 11.8693 51.779 11.912C51.4163 11.9333 51.1177 11.9653 50.883 12.008V20.616C51.1817 20.808 51.5657 20.968 52.035 21.096C52.5257 21.224 53.0163 21.288 53.507 21.288C55.7683 21.288 56.899 19.7627 56.899 16.712ZM61.763 16.584C61.763 17.8853 61.603 19.0693 61.283 20.136C60.963 21.2027 60.4937 22.12 59.875 22.888C59.2563 23.656 58.4883 24.2533 57.571 24.68C56.6537 25.1067 55.5977 25.32 54.403 25.32C53.7417 25.32 53.123 25.256 52.547 25.128C51.971 25 51.4163 24.8187 50.883 24.584V30.92H46.115V8.744C46.5417 8.616 47.0323 8.49867 47.587 8.392C48.1417 8.264 48.7177 8.15733 49.315 8.072C49.9337 7.98667 50.5523 7.92267 51.171 7.88C51.811 7.816 52.419 7.784 52.995 7.784C54.3817 7.784 55.619 7.99733 56.707 8.424C57.795 8.82933 58.7123 9.416 59.459 10.184C60.2057 10.9307 60.771 11.848 61.155 12.936C61.5603 14.024 61.763 15.24 61.763 16.584ZM70.1955 14.248C70.6648 13.736 71.1448 13.2027 71.6355 12.648C72.1475 12.0933 72.6382 11.5493 73.1075 11.016C73.5768 10.4613 74.0142 9.93867 74.4195 9.448C74.8462 8.95733 75.2088 8.53067 75.5075 8.168H81.1715C80.0408 9.46933 78.9315 10.7173 77.8435 11.912C76.7768 13.0853 75.6035 14.3013 74.3235 15.56C74.9635 16.136 75.6248 16.8293 76.3075 17.64C76.9902 18.4293 77.6515 19.2507 78.2915 20.104C78.9315 20.9573 79.5182 21.8107 80.0515 22.664C80.5848 23.5173 81.0328 24.296 81.3955 25H75.9235C75.5822 24.4453 75.1875 23.8373 74.7395 23.176C74.3128 22.4933 73.8542 21.8213 73.3635 21.16C72.8728 20.4773 72.3502 19.8267 71.7955 19.208C71.2622 18.5893 70.7288 18.0667 70.1955 17.64V25H65.4275V0.935999L70.1955 0.167999V14.248ZM88.7268 25H83.9588V8.168H88.7268V25ZM89.1748 3.304C89.1748 4.17867 88.8868 4.872 88.3108 5.384C87.7561 5.87467 87.0948 6.12 86.3268 6.12C85.5588 6.12 84.8868 5.87467 84.3108 5.384C83.7561 4.872 83.4788 4.17867 83.4788 3.304C83.4788 2.42933 83.7561 1.74667 84.3108 1.256C84.8868 0.743999 85.5588 0.487999 86.3268 0.487999C87.0948 0.487999 87.7561 0.743999 88.3108 1.256C88.8868 1.74667 89.1748 2.42933 89.1748 3.304ZM93.2088 8.744C94.0194 8.50933 95.0648 8.296 96.3448 8.104C97.6248 7.89067 98.9688 7.784 100.377 7.784C101.806 7.784 102.99 7.976 103.929 8.36C104.889 8.72267 105.646 9.24533 106.201 9.928C106.755 10.6107 107.15 11.4213 107.385 12.36C107.619 13.2987 107.737 14.344 107.737 15.496V25H102.969V16.072C102.969 14.536 102.766 13.448 102.361 12.808C101.955 12.168 101.198 11.848 100.089 11.848C99.7474 11.848 99.3848 11.8693 99.0008 11.912C98.6168 11.9333 98.2754 11.9653 97.9768 12.008V25H93.2088V8.744ZM112.373 25V2.824H127.221V7.016H117.365V11.656H126.133V15.848H117.365V25H112.373ZM145.859 16.552C145.859 17.8747 145.667 19.0907 145.283 20.2C144.899 21.288 144.344 22.2267 143.619 23.016C142.894 23.784 142.019 24.3813 140.995 24.808C139.992 25.2347 138.862 25.448 137.603 25.448C136.366 25.448 135.235 25.2347 134.211 24.808C133.208 24.3813 132.344 23.784 131.619 23.016C130.894 22.2267 130.328 21.288 129.923 20.2C129.518 19.0907 129.315 17.8747 129.315 16.552C129.315 15.2293 129.518 14.024 129.923 12.936C130.35 11.848 130.926 10.92 131.651 10.152C132.398 9.384 133.272 8.78667 134.275 8.36C135.299 7.93333 136.408 7.72 137.603 7.72C138.819 7.72 139.928 7.93333 140.931 8.36C141.955 8.78667 142.83 9.384 143.555 10.152C144.28 10.92 144.846 11.848 145.251 12.936C145.656 14.024 145.859 15.2293 145.859 16.552ZM140.995 16.552C140.995 15.08 140.696 13.928 140.099 13.096C139.523 12.2427 138.691 11.816 137.603 11.816C136.515 11.816 135.672 12.2427 135.075 13.096C134.478 13.928 134.179 15.08 134.179 16.552C134.179 18.024 134.478 19.1973 135.075 20.072C135.672 20.9253 136.515 21.352 137.603 21.352C138.691 21.352 139.523 20.9253 140.099 20.072C140.696 19.1973 140.995 18.024 140.995 16.552ZM165.297 16.552C165.297 17.8747 165.105 19.0907 164.721 20.2C164.337 21.288 163.782 22.2267 163.057 23.016C162.331 23.784 161.457 24.3813 160.433 24.808C159.43 25.2347 158.299 25.448 157.041 25.448C155.803 25.448 154.673 25.2347 153.649 24.808C152.646 24.3813 151.782 23.784 151.057 23.016C150.331 22.2267 149.766 21.288 149.361 20.2C148.955 19.0907 148.753 17.8747 148.753 16.552C148.753 15.2293 148.955 14.024 149.361 12.936C149.787 11.848 150.363 10.92 151.089 10.152C151.835 9.384 152.71 8.78667 153.713 8.36C154.737 7.93333 155.846 7.72 157.041 7.72C158.257 7.72 159.366 7.93333 160.369 8.36C161.393 8.78667 162.267 9.384 162.993 10.152C163.718 10.92 164.283 11.848 164.689 12.936C165.094 14.024 165.297 15.2293 165.297 16.552ZM160.433 16.552C160.433 15.08 160.134 13.928 159.537 13.096C158.961 12.2427 158.129 11.816 157.041 11.816C155.953 11.816 155.11 12.2427 154.513 13.096C153.915 13.928 153.617 15.08 153.617 16.552C153.617 18.024 153.915 19.1973 154.513 20.072C155.11 20.9253 155.953 21.352 157.041 21.352C158.129 21.352 158.961 20.9253 159.537 20.072C160.134 19.1973 160.433 18.024 160.433 16.552ZM173.054 16.456C173.054 17.928 173.385 19.112 174.046 20.008C174.707 20.904 175.689 21.352 176.99 21.352C177.417 21.352 177.811 21.3413 178.174 21.32C178.537 21.2773 178.835 21.2347 179.07 21.192V12.52C178.771 12.328 178.377 12.168 177.886 12.04C177.417 11.912 176.937 11.848 176.446 11.848C174.185 11.848 173.054 13.384 173.054 16.456ZM183.838 24.456C183.411 24.584 182.921 24.712 182.366 24.84C181.811 24.9467 181.225 25.0427 180.606 25.128C180.009 25.2133 179.39 25.2773 178.75 25.32C178.131 25.384 177.534 25.416 176.958 25.416C175.571 25.416 174.334 25.2133 173.246 24.808C172.158 24.4027 171.241 23.8267 170.494 23.08C169.747 22.312 169.171 21.3947 168.766 20.328C168.382 19.24 168.19 18.024 168.19 16.68C168.19 15.3147 168.361 14.088 168.702 13C169.043 11.8907 169.534 10.952 170.174 10.184C170.814 9.416 171.593 8.82933 172.51 8.424C173.449 8.01867 174.515 7.816 175.71 7.816C176.371 7.816 176.958 7.88 177.47 8.008C178.003 8.136 178.537 8.31733 179.07 8.552V0.935999L183.838 0.167999V24.456ZM193.135 21.576C194.009 21.576 194.628 21.4907 194.991 21.32C195.353 21.1493 195.535 20.8187 195.535 20.328C195.535 19.944 195.3 19.6133 194.831 19.336C194.361 19.0373 193.647 18.7067 192.687 18.344C191.94 18.0667 191.257 17.7787 190.639 17.48C190.041 17.1813 189.529 16.8293 189.103 16.424C188.676 15.9973 188.345 15.496 188.111 14.92C187.876 14.344 187.759 13.6507 187.759 12.84C187.759 11.2613 188.345 10.0133 189.519 9.096C190.692 8.17867 192.303 7.72 194.351 7.72C195.375 7.72 196.356 7.816 197.295 8.008C198.233 8.17867 198.98 8.37067 199.535 8.584L198.703 12.296C198.148 12.104 197.54 11.9333 196.879 11.784C196.239 11.6347 195.513 11.56 194.703 11.56C193.209 11.56 192.463 11.976 192.463 12.808C192.463 13 192.495 13.1707 192.559 13.32C192.623 13.4693 192.751 13.6187 192.943 13.768C193.135 13.896 193.391 14.0453 193.711 14.216C194.052 14.3653 194.479 14.536 194.991 14.728C196.036 15.112 196.9 15.496 197.583 15.88C198.265 16.2427 198.799 16.648 199.183 17.096C199.588 17.5227 199.865 18.0027 200.015 18.536C200.185 19.0693 200.271 19.688 200.271 20.392C200.271 22.056 199.641 23.3147 198.383 24.168C197.145 25.0213 195.385 25.448 193.103 25.448C191.609 25.448 190.361 25.32 189.359 25.064C188.377 24.808 187.695 24.5947 187.311 24.424L188.111 20.552C188.921 20.872 189.753 21.128 190.607 21.32C191.46 21.4907 192.303 21.576 193.135 21.576Z" fill="white"/>
<path d="M19.44 25L18.5686 25.4906L18.8554 26H19.44V25ZM14.8 17.48L13.9702 18.038L14.8 17.48ZM9.488 10.472L10.2483 9.82242L8.488 7.76208V10.472H9.488ZM9.488 25V26H10.488V25H9.488ZM4.56 25H3.56V26H4.56V25ZM4.56 2.824V1.824H3.56V2.824H4.56ZM8.624 2.824L9.33111 2.11689L9.03821 1.824H8.624V2.824ZM10.96 5.416L11.7282 4.77581L10.96 5.416ZM13.552 8.712L12.7503 9.30966L12.7564 9.31787L12.7626 9.32594L13.552 8.712ZM16.208 12.328L15.3868 12.8987L15.3914 12.9052L16.208 12.328ZM18.672 15.912L17.84 16.4667L19.672 19.2148V15.912H18.672ZM18.672 2.824V1.824H17.672V2.824H18.672ZM23.632 2.824H24.632V1.824H23.632V2.824ZM23.632 25V26H24.632V25H23.632ZM20.3114 24.5094C18.8688 21.9472 17.3082 19.4181 15.6298 16.922L13.9702 18.038C15.6198 20.4913 17.1525 22.9755 18.5686 25.4906L20.3114 24.5094ZM15.6298 16.922C13.9451 14.4165 12.1513 12.0498 10.2483 9.82242L8.7277 11.1216C10.5793 13.2888 12.3269 15.5942 13.9702 18.038L15.6298 16.922ZM8.488 10.472V25H10.488V10.472H8.488ZM9.488 24H4.56V26H9.488V24ZM5.56 25V2.824H3.56V25H5.56ZM4.56 3.824H8.624V1.824H4.56V3.824ZM7.91689 3.53111C8.59377 4.20798 9.35177 5.04818 10.1918 6.05618L11.7282 4.77581C10.8616 3.73582 10.0622 2.84802 9.33111 2.11689L7.91689 3.53111ZM10.1918 6.05618C11.0325 7.06505 11.8853 8.14942 12.7503 9.30966L14.3537 8.11434C13.4693 6.92791 12.5942 5.81495 11.7282 4.77581L10.1918 6.05618ZM12.7626 9.32594C13.6471 10.4631 14.5219 11.654 15.3868 12.8987L17.0292 11.7573C16.1448 10.4847 15.2489 9.26488 14.3414 8.09806L12.7626 9.32594ZM15.3914 12.9052C16.2613 14.1358 17.0775 15.323 17.84 16.4667L19.5041 15.3573C18.7306 14.197 17.904 12.9949 17.0246 11.7508L15.3914 12.9052ZM19.672 15.912V2.824H17.672V15.912H19.672ZM18.672 3.824H23.632V1.824H18.672V3.824ZM22.632 2.824V25H24.632V2.824H22.632ZM23.632 24H19.44V26H23.632V24ZM36.2035 21.64L36.2534 22.6388L36.2035 21.64ZM37.2275 21.544L37.3919 22.5304L38.2275 22.3911V21.544H37.2275ZM37.2275 17.928H38.2275V17.1258L37.4444 16.9518L37.2275 17.928ZM34.0275 17.832L34.1379 18.8259L34.1608 18.8233L34.1835 18.8198L34.0275 17.832ZM33.0035 18.12L33.4507 19.0144L33.0035 18.12ZM32.7795 21.256L32.2596 22.1102L32.2811 22.1233L32.3032 22.1353L32.7795 21.256ZM40.2355 9.576L39.5027 10.2564L39.5091 10.2634L39.5157 10.2701L40.2355 9.576ZM41.4515 11.752L42.4157 11.4868L41.4515 11.752ZM41.8035 24.52L42.0172 25.4969L42.8035 25.3249V24.52H41.8035ZM38.9555 25.032L38.7995 24.0442L38.7911 24.0456L38.7827 24.047L38.9555 25.032ZM31.5635 25.064L31.3491 26.0408L31.354 26.0418L31.5635 25.064ZM29.2915 24.136L28.718 24.9552L28.7273 24.9617L28.7368 24.9681L29.2915 24.136ZM27.8195 22.408L28.7193 21.9717L27.8195 22.408ZM27.8835 17.32L27.0236 16.8095L27.0177 16.8195L27.0119 16.8297L27.8835 17.32ZM29.4835 15.688L30.0061 16.5406L29.4835 15.688ZM31.7555 14.824L31.9516 15.8046L31.9633 15.8022L31.975 15.7996L31.7555 14.824ZM36.0435 14.632L35.9084 15.6228L35.9326 15.6261L35.9569 15.6282L36.0435 14.632ZM37.2275 14.824L36.9528 15.7855L38.2275 16.1497V14.824H37.2275ZM31.5315 11.88L31.6654 12.871L31.6785 12.8692L31.6916 12.8671L31.5315 11.88ZM29.4835 12.36L28.4958 12.5164L28.6866 13.7215L29.8308 13.2977L29.4835 12.36ZM28.8755 8.52L28.5814 7.56422L27.7521 7.81939L27.8878 8.67638L28.8755 8.52ZM29.8995 8.264L30.1055 9.24255L30.1238 9.23869L30.142 9.23414L29.8995 8.264ZM31.2755 8.008L31.4048 8.9996L31.4259 8.99685L31.4468 8.99321L31.2755 8.008ZM32.8115 7.816L32.8912 8.81282L32.9087 8.81142L32.9261 8.80941L32.8115 7.816ZM34.8595 22.672C35.3439 22.672 35.8086 22.661 36.2534 22.6388L36.1536 20.6412C35.7451 20.6617 35.3138 20.672 34.8595 20.672V22.672ZM36.2534 22.6388C36.6974 22.6166 37.0817 22.5821 37.3919 22.5304L37.0631 20.5576C36.8613 20.5912 36.5629 20.6208 36.1536 20.6412L36.2534 22.6388ZM38.2275 21.544V17.928H36.2275V21.544H38.2275ZM37.4444 16.9518C37.1981 16.8971 36.8666 16.8497 36.4739 16.8061L36.2531 18.7939C36.6284 18.8356 36.8729 18.8736 37.0106 18.9042L37.4444 16.9518ZM36.4739 16.8061C36.0605 16.7602 35.671 16.736 35.3075 16.736V18.736C35.584 18.736 35.8985 18.7545 36.2531 18.7939L36.4739 16.8061ZM35.3075 16.736C34.812 16.736 34.3329 16.7714 33.8715 16.8442L34.1835 18.8198C34.5328 18.7646 34.907 18.736 35.3075 18.736V16.736ZM33.9171 16.8381C33.4339 16.8918 32.9756 17.0159 32.5563 17.2256L33.4507 19.0144C33.6287 18.9254 33.8531 18.8575 34.1379 18.8259L33.9171 16.8381ZM32.5563 17.2256C32.1156 17.4459 31.7428 17.7603 31.4675 18.1733L33.1315 19.2827C33.1975 19.1837 33.294 19.0928 33.4507 19.0144L32.5563 17.2256ZM31.4675 18.1733C31.1629 18.6301 31.0435 19.1557 31.0435 19.688H33.0435C33.0435 19.4523 33.0948 19.3379 33.1315 19.2827L31.4675 18.1733ZM31.0435 19.688C31.0435 20.6646 31.3815 21.5757 32.2596 22.1102L33.2994 20.4018C33.1961 20.3389 33.0435 20.2047 33.0435 19.688H31.0435ZM32.3032 22.1353C33.0167 22.5218 33.8954 22.672 34.8595 22.672V20.672C34.0743 20.672 33.5663 20.5449 33.2558 20.3767L32.3032 22.1353ZM34.4755 8.72C35.816 8.72 36.8716 8.87338 37.6728 9.14651L38.3182 7.25349C37.242 6.88662 35.951 6.72 34.4755 6.72V8.72ZM37.6728 9.14651C38.4885 9.42458 39.0825 9.80397 39.5027 10.2564L40.9683 8.89555C40.2791 8.15336 39.3798 7.61542 38.3182 7.25349L37.6728 9.14651ZM39.5157 10.2701C39.9679 10.7392 40.2939 11.3139 40.4873 12.0172L42.4157 11.4868C42.1398 10.4834 41.6551 9.60751 40.9553 8.88186L39.5157 10.2701ZM40.4873 12.0172C40.6944 12.7702 40.8035 13.6285 40.8035 14.6H42.8035C42.8035 13.4808 42.678 12.4405 42.4157 11.4868L40.4873 12.0172ZM40.8035 14.6V24.52H42.8035V14.6H40.8035ZM41.5898 23.5431C40.9354 23.6863 40.0083 23.8534 38.7995 24.0442L39.1115 26.0198C40.3347 25.8266 41.3063 25.6524 42.0172 25.4969L41.5898 23.5431ZM38.7827 24.047C37.6413 24.2473 36.2306 24.352 34.5395 24.352V26.352C36.3044 26.352 37.8377 26.2434 39.1283 26.017L38.7827 24.047ZM34.5395 24.352C33.5092 24.352 32.5888 24.261 31.773 24.0862L31.354 26.0418C32.3302 26.251 33.3938 26.352 34.5395 26.352V24.352ZM31.7779 24.0873C31.005 23.9176 30.3672 23.6513 29.8462 23.3039L28.7368 24.9681C29.4958 25.474 30.3726 25.8264 31.3491 26.0407L31.7779 24.0873ZM29.865 23.3168C29.3648 22.9667 28.9864 22.5226 28.7193 21.9717L26.9197 22.8443C27.3353 23.7014 27.9382 24.4093 28.718 24.9552L29.865 23.3168ZM28.7193 21.9717C28.461 21.439 28.3075 20.7337 28.3075 19.816H26.3075C26.3075 20.9463 26.4953 21.969 26.9197 22.8443L28.7193 21.9717ZM28.3075 19.816C28.3075 18.9636 28.474 18.3099 28.7551 17.8103L27.0119 16.8297C26.525 17.6954 26.3075 18.7057 26.3075 19.816H28.3075ZM28.7434 17.8305C29.0678 17.2842 29.4866 16.859 30.0061 16.5406L28.9609 14.8354C28.1577 15.3277 27.5099 15.9905 27.0236 16.8095L28.7434 17.8305ZM30.0061 16.5406C30.5555 16.2039 31.1998 15.9549 31.9516 15.8046L31.5594 13.8434C30.6045 14.0344 29.7342 14.3615 28.9609 14.8354L30.0061 16.5406ZM31.975 15.7996C32.7529 15.6246 33.5644 15.536 34.4115 15.536V13.536C33.4239 13.536 32.4648 13.6394 31.536 13.8484L31.975 15.7996ZM34.4115 15.536C34.9978 15.536 35.495 15.5665 35.9084 15.6228L36.1786 13.6412C35.6534 13.5695 35.0625 13.536 34.4115 13.536V15.536ZM35.9569 15.6282C36.4162 15.6682 36.7404 15.7248 36.9528 15.7855L37.5022 13.8625C37.1173 13.7525 36.6521 13.6812 36.1301 13.6358L35.9569 15.6282ZM38.2275 14.824V14.376H36.2275V14.824H38.2275ZM38.2275 14.376C38.2275 13.3483 37.9083 12.4266 37.1986 11.7169L35.7844 13.1311C36.056 13.4027 36.2275 13.7824 36.2275 14.376H38.2275ZM37.1986 11.7169C36.4212 10.9395 35.2282 10.688 33.9315 10.688V12.688C35.0668 12.688 35.5804 12.9271 35.7844 13.1311L37.1986 11.7169ZM33.9315 10.688C33.068 10.688 32.2144 10.7562 31.3714 10.8929L31.6916 12.8671C32.4273 12.7478 33.1737 12.688 33.9315 12.688V10.688ZM31.3976 10.889C30.5556 11.0028 29.798 11.1771 29.1362 11.4223L29.8308 13.2977C30.321 13.1162 30.9287 12.9705 31.6654 12.871L31.3976 10.889ZM30.4712 12.2036L29.8632 8.36361L27.8878 8.67638L28.4958 12.5164L30.4712 12.2036ZM29.1696 9.47578C29.4086 9.40224 29.7185 9.32403 30.1055 9.24255L29.6935 7.28545C29.2699 7.37463 28.8971 7.46709 28.5814 7.56422L29.1696 9.47578ZM30.142 9.23414C30.5271 9.13787 30.9477 9.05923 31.4048 8.9996L31.1462 7.0164C30.622 7.08477 30.1252 7.1768 29.657 7.29386L30.142 9.23414ZM31.4468 8.99321C31.905 8.91353 32.3864 8.85321 32.8912 8.81282L32.7318 6.81918C32.17 6.86413 31.6273 6.93181 31.1042 7.02279L31.4468 8.99321ZM32.9261 8.80941C33.443 8.74977 33.9594 8.72 34.4755 8.72V6.72C33.8823 6.72 33.2893 6.75423 32.6969 6.82259L32.9261 8.80941ZM55.907 13.192L55.1024 13.7859L55.1093 13.7951L55.907 13.192ZM51.779 11.912L51.8377 12.9103L51.8669 12.9086L51.8958 12.9051L51.779 11.912ZM50.883 12.008L50.7041 11.0241L49.883 11.1734V12.008H50.883ZM50.883 20.616H49.883V21.162L50.3422 21.4572L50.883 20.616ZM52.035 21.096L51.7719 22.0608L51.7826 22.0636L52.035 21.096ZM61.283 20.136L60.3252 19.8487L61.283 20.136ZM59.875 22.888L59.0962 22.2607V22.2607L59.875 22.888ZM57.571 24.68L57.9927 25.5867L57.571 24.68ZM52.547 25.128L52.7639 24.1518L52.547 25.128ZM50.883 24.584L51.2857 23.6687L49.883 23.0515V24.584H50.883ZM50.883 30.92V31.92H51.883V30.92H50.883ZM46.115 30.92H45.115V31.92H46.115V30.92ZM46.115 8.744L45.8277 7.78617L45.115 7.99997V8.744H46.115ZM47.587 8.392L47.7758 9.374L47.7939 9.37053L47.8119 9.36639L47.587 8.392ZM49.315 8.072L49.1784 7.08137L49.1736 7.08205L49.315 8.072ZM51.171 7.88L51.2398 8.87763L51.2552 8.87657L51.2705 8.87504L51.171 7.88ZM56.707 8.424L56.3419 9.35497L56.3499 9.3581L56.3579 9.36108L56.707 8.424ZM59.459 10.184L58.7419 10.8811L58.7519 10.8911L59.459 10.184ZM61.155 12.936L60.212 13.2688L60.2149 13.277L60.2179 13.2851L61.155 12.936ZM57.899 16.712C57.899 15.0962 57.5358 13.6881 56.7047 12.5889L55.1093 13.7951C55.6009 14.4452 55.899 15.3838 55.899 16.712H57.899ZM56.7116 12.5981C55.8283 11.4014 54.521 10.848 52.963 10.848V12.848C54.0077 12.848 54.663 13.1905 55.1024 13.7859L56.7116 12.5981ZM52.963 10.848C52.5036 10.848 52.0694 10.8709 51.6622 10.9188L51.8958 12.9051C52.2139 12.8677 52.5691 12.848 52.963 12.848V10.848ZM51.7203 10.9137C51.3358 10.9363 50.9933 10.9715 50.7041 11.0241L51.0619 12.9919C51.242 12.9591 51.4969 12.9303 51.8377 12.9103L51.7203 10.9137ZM49.883 12.008V20.616H51.883V12.008H49.883ZM50.3422 21.4572C50.7517 21.7204 51.2379 21.9151 51.7719 22.0608L52.2981 20.1312C51.8934 20.0209 51.6116 19.8956 51.4238 19.7748L50.3422 21.4572ZM51.7826 22.0636C52.3529 22.2124 52.9283 22.288 53.507 22.288V20.288C53.1043 20.288 52.6984 20.2356 52.2874 20.1284L51.7826 22.0636ZM53.507 22.288C54.8861 22.288 56.0631 21.8069 56.8544 20.7395C57.604 19.7282 57.899 18.3317 57.899 16.712H55.899C55.899 18.143 55.6286 19.0345 55.2476 19.5485C54.9082 20.0064 54.3892 20.288 53.507 20.288V22.288ZM60.763 16.584C60.763 17.804 60.613 18.8894 60.3252 19.8487L62.2408 20.4233C62.593 19.2493 62.763 17.9667 62.763 16.584H60.763ZM60.3252 19.8487C60.0375 20.8074 59.624 21.6055 59.0962 22.2607L60.6538 23.5153C61.3633 22.6345 61.8885 21.5979 62.2408 20.4233L60.3252 19.8487ZM59.0962 22.2607C58.5762 22.9063 57.9315 23.4095 57.1493 23.7733L57.9927 25.5867C59.0452 25.0972 59.9365 24.4057 60.6538 23.5153L59.0962 22.2607ZM57.1493 23.7733C56.3858 24.1284 55.4781 24.32 54.403 24.32V26.32C55.7173 26.32 56.9215 26.085 57.9927 25.5867L57.1493 23.7733ZM54.403 24.32C53.806 24.32 53.2608 24.2622 52.7639 24.1518L52.3301 26.1042C52.9852 26.2498 53.6773 26.32 54.403 26.32V24.32ZM52.7639 24.1518C52.2509 24.0378 51.7585 23.8767 51.2857 23.6687L50.4803 25.4993C51.0742 25.7606 51.6911 25.9622 52.3301 26.1042L52.7639 24.1518ZM49.883 24.584V30.92H51.883V24.584H49.883ZM50.883 29.92H46.115V31.92H50.883V29.92ZM47.115 30.92V8.744H45.115V30.92H47.115ZM46.4023 9.70183C46.7894 9.58571 47.2461 9.47589 47.7758 9.374L47.3982 7.40999C46.8186 7.52145 46.2939 7.64629 45.8277 7.78617L46.4023 9.70183ZM47.8119 9.36639C48.3374 9.24512 48.8854 9.14352 49.4564 9.06195L49.1736 7.08205C48.5499 7.17115 47.946 7.28288 47.3621 7.41761L47.8119 9.36639ZM49.4516 9.06262C50.0479 8.98037 50.644 8.91872 51.2398 8.87763L51.1022 6.88237C50.4607 6.92661 49.8194 6.99296 49.1784 7.08138L49.4516 9.06262ZM51.2705 8.87504C51.8812 8.81397 52.4558 8.784 52.995 8.784V6.784C52.3822 6.784 51.7408 6.81803 51.0715 6.88496L51.2705 8.87504ZM52.995 8.784C54.2795 8.784 55.3897 8.98157 56.3419 9.35497L57.0721 7.49303C55.8483 7.0131 54.4838 6.784 52.995 6.784V8.784ZM56.3579 9.36108C57.3188 9.71908 58.1071 10.2281 58.742 10.8811L60.176 9.48692C59.3175 8.60394 58.2712 7.93958 57.0561 7.48692L56.3579 9.36108ZM58.7519 10.8911C59.3835 11.5227 59.873 12.3084 60.212 13.2688L62.098 12.6032C61.669 11.3876 61.0279 10.3386 60.1661 9.47689L58.7519 10.8911ZM60.2179 13.2851C60.5756 14.2453 60.763 15.3407 60.763 16.584H62.763C62.763 15.1393 62.545 13.8027 62.0921 12.5869L60.2179 13.2851ZM70.1955 14.248H69.1955V16.8188L70.9327 14.9237L70.1955 14.248ZM71.6355 12.648L70.9007 11.9697L70.8935 11.9775L70.8865 11.9854L71.6355 12.648ZM73.1075 11.016L73.8582 11.6766L73.8646 11.6693L73.8709 11.6619L73.1075 11.016ZM74.4195 9.448L73.6649 8.79182L73.6566 8.80136L73.6485 8.81112L74.4195 9.448ZM75.5075 8.168V7.168H75.0356L74.7356 7.53229L75.5075 8.168ZM81.1715 8.168L81.9264 8.82387L83.3651 7.168H81.1715V8.168ZM77.8435 11.912L77.1042 11.2387L77.1036 11.2393L77.8435 11.912ZM74.3235 15.56L73.6224 14.847L72.8645 15.5922L73.6545 16.3033L74.3235 15.56ZM76.3075 17.64L75.5425 18.2842L75.5511 18.2942L76.3075 17.64ZM78.2915 20.104L79.0915 19.504L78.2915 20.104ZM80.0515 22.664L79.2035 23.194L80.0515 22.664ZM81.3955 25V26H83.0355L82.2845 24.542L81.3955 25ZM75.9235 25L75.0718 25.5241L75.3647 26H75.9235V25ZM74.7395 23.176L73.8915 23.706L73.9013 23.7216L73.9116 23.7368L74.7395 23.176ZM73.3635 21.16L72.5515 21.7436L72.5559 21.7498L72.5604 21.7558L73.3635 21.16ZM71.7955 19.208L71.0381 19.8609L71.0444 19.8683L71.0509 19.8755L71.7955 19.208ZM70.1955 17.64L70.8202 16.8591L69.1955 15.5594V17.64H70.1955ZM70.1955 25V26H71.1955V25H70.1955ZM65.4275 25H64.4275V26H65.4275V25ZM65.4275 0.935999L65.2685 -0.0512757L64.4275 0.0841832V0.935999H65.4275ZM70.1955 0.167999H71.1955V-1.00596L70.0365 -0.819275L70.1955 0.167999ZM70.9327 14.9237C71.4062 14.4071 71.8902 13.8694 72.3845 13.3106L70.8865 11.9854C70.3995 12.536 69.9234 13.0649 69.4583 13.5723L70.9327 14.9237ZM72.3703 13.3263C72.8873 12.7661 73.3833 12.2163 73.8582 11.6766L72.3568 10.3554C71.893 10.8824 71.4077 11.4205 70.9007 11.9697L72.3703 13.3263ZM73.8709 11.6619C74.3424 11.1047 74.7823 10.579 75.1905 10.0849L73.6485 8.81112C73.246 9.29836 72.8112 9.81799 72.3441 10.3701L73.8709 11.6619ZM75.1741 10.1042C75.6046 9.60911 75.9734 9.17532 76.2794 8.80371L74.7356 7.53229C74.4443 7.88601 74.0877 8.30555 73.6649 8.79182L75.1741 10.1042ZM75.5075 9.168H81.1715V7.168H75.5075V9.168ZM80.4166 7.51213C79.2907 8.80797 78.1866 10.0501 77.1042 11.2387L78.5828 12.5853C79.6764 11.3845 80.7909 10.1307 81.9264 8.82387L80.4166 7.51213ZM77.1036 11.2393C76.051 12.3972 74.8908 13.5997 73.6224 14.847L75.0246 16.273C76.3162 15.0029 77.5027 13.7735 78.5834 12.5847L77.1036 11.2393ZM73.6545 16.3033C74.2536 16.8424 74.8831 17.501 75.5426 18.2841L77.0724 16.9959C76.3666 16.1577 75.6734 15.4296 74.9925 14.8167L73.6545 16.3033ZM75.5511 18.2942C76.2183 19.0656 76.8651 19.8688 77.4915 20.704L79.0915 19.504C78.4379 18.6325 77.762 17.7931 77.0639 16.9858L75.5511 18.2942ZM77.4915 20.704C78.1155 21.536 78.686 22.366 79.2035 23.194L80.8995 22.134C80.3503 21.2553 79.7475 20.3786 79.0915 19.504L77.4915 20.704ZM79.2035 23.194C79.7259 24.0298 80.1594 24.784 80.5065 25.458L82.2845 24.542C81.9063 23.808 81.4438 23.0048 80.8995 22.134L79.2035 23.194ZM81.3955 24H75.9235V26H81.3955V24ZM76.7752 24.4759C76.4247 23.9064 76.0219 23.286 75.5674 22.6152L73.9116 23.7368C74.3531 24.3887 74.7396 24.9843 75.0718 25.5241L76.7752 24.4759ZM75.5875 22.646C75.1464 21.9403 74.6727 21.2463 74.1666 20.5642L72.5604 21.7558C73.0356 22.3963 73.4792 23.0464 73.8915 23.706L75.5875 22.646ZM74.1755 20.5764C73.6641 19.8649 73.119 19.1862 72.5401 18.5405L71.0509 19.8755C71.5813 20.4672 72.0815 21.0898 72.5515 21.7436L74.1755 20.5764ZM72.5529 18.5551C71.9869 17.8985 71.4099 17.3309 70.8202 16.8591L69.5708 18.4209C70.0478 18.8025 70.5374 19.2802 71.0381 19.8609L72.5529 18.5551ZM69.1955 17.64V25H71.1955V17.64H69.1955ZM70.1955 24H65.4275V26H70.1955V24ZM66.4275 25V0.935999H64.4275V25H66.4275ZM65.5865 1.92327L70.3545 1.15527L70.0365 -0.819275L65.2685 -0.0512757L65.5865 1.92327ZM69.1955 0.167999V14.248H71.1955V0.167999H69.1955ZM88.7268 25V26H89.7268V25H88.7268ZM83.9587 25H82.9587V26H83.9587V25ZM83.9587 8.168V7.168H82.9587V8.168H83.9587ZM88.7268 8.168H89.7268V7.168H88.7268V8.168ZM88.3108 5.384L88.9733 6.133L88.9751 6.13141L88.3108 5.384ZM84.3108 5.384L83.6325 6.1188L83.6471 6.13232L83.6623 6.14524L84.3108 5.384ZM84.3108 1.256L84.9733 2.005L84.9751 2.00341L84.3108 1.256ZM88.3108 1.256L87.6325 1.9908L87.6471 2.00432L87.6623 2.01724L88.3108 1.256ZM88.7268 24H83.9587V26H88.7268V24ZM84.9587 25V8.168H82.9587V25H84.9587ZM83.9587 9.168H88.7268V7.168H83.9587V9.168ZM87.7268 8.168V25H89.7268V8.168H87.7268ZM88.1748 3.304C88.1748 3.93581 87.9789 4.34104 87.6464 4.63659L88.9751 6.13141C89.7946 5.40296 90.1748 4.42152 90.1748 3.304H88.1748ZM87.6482 4.635C87.2836 4.95749 86.8606 5.12 86.3268 5.12V7.12C87.3289 7.12 88.2285 6.79184 88.9733 6.133L87.6482 4.635ZM86.3268 5.12C85.7925 5.12 85.3513 4.95679 84.9592 4.62276L83.6623 6.14524C84.4221 6.79254 85.325 7.12 86.3268 7.12V5.12ZM84.989 4.6492C84.6726 4.3571 84.4788 3.94812 84.4788 3.304H82.4788C82.4788 4.40921 82.8396 5.3869 83.6325 6.1188L84.989 4.6492ZM84.4788 3.304C84.4788 2.65887 84.6725 2.27114 84.9733 2.00499L83.6482 0.507002C82.8397 1.2222 82.4788 2.1998 82.4788 3.304H84.4788ZM84.9751 2.00341C85.3688 1.6535 85.8046 1.488 86.3268 1.488V-0.512001C85.3129 -0.512001 84.4047 -0.165499 83.6464 0.508589L84.9751 2.00341ZM86.3268 1.488C86.8482 1.488 87.2661 1.65258 87.6325 1.9908L88.989 0.521195C88.2461 -0.164582 87.3413 -0.512001 86.3268 -0.512001V1.488ZM87.6623 2.01724C87.9793 2.28727 88.1748 2.67152 88.1748 3.304H90.1748C90.1748 2.18715 89.7942 1.20607 88.9592 0.494755L87.6623 2.01724ZM93.2087 8.744L92.9307 7.78344L92.2087 7.99242V8.744H93.2087ZM96.3447 8.104L96.4931 9.09294L96.5011 9.09173L96.5091 9.09039L96.3447 8.104ZM103.929 8.36L103.55 9.28555L103.563 9.29068L103.575 9.29547L103.929 8.36ZM106.201 9.928L105.425 10.5586V10.5586L106.201 9.928ZM107.385 12.36L106.415 12.6025H106.415L107.385 12.36ZM107.737 25V26H108.737V25H107.737ZM102.969 25H101.969V26H102.969V25ZM102.361 12.808L101.516 13.3431L102.361 12.808ZM99.0007 11.912L99.0562 12.9105L99.0838 12.9089L99.1112 12.9059L99.0007 11.912ZM97.9768 12.008L97.8353 11.018L96.9768 11.1407V12.008H97.9768ZM97.9768 25V26H98.9768V25H97.9768ZM93.2087 25H92.2087V26H93.2087V25ZM93.4868 9.70456C94.2388 9.48688 95.2364 9.28143 96.4931 9.09294L96.1964 7.11506C94.8931 7.31056 93.8 7.53179 92.9307 7.78344L93.4868 9.70456ZM96.5091 9.09039C97.7305 8.88684 99.0192 8.784 100.377 8.784V6.784C98.9183 6.784 97.519 6.89449 96.1804 7.11761L96.5091 9.09039ZM100.377 8.784C101.725 8.784 102.77 8.96643 103.55 9.28555L104.307 7.43445C103.21 6.98557 101.887 6.784 100.377 6.784V8.784ZM103.575 9.29547C104.398 9.60618 104.999 10.0345 105.425 10.5586L106.977 9.29741C106.293 8.45614 105.38 7.83915 104.282 7.42453L103.575 9.29547ZM105.425 10.5586C105.878 11.1167 106.212 11.7915 106.415 12.6025L108.355 12.1175C108.088 11.0512 107.633 10.1046 106.977 9.29741L105.425 10.5586ZM106.415 12.6025C106.626 13.4485 106.737 14.4107 106.737 15.496H108.737C108.737 14.2773 108.613 13.1488 108.355 12.1175L106.415 12.6025ZM106.737 15.496V25H108.737V15.496H106.737ZM107.737 24H102.969V26H107.737V24ZM103.969 25V16.072H101.969V25H103.969ZM103.969 16.072C103.969 14.5056 103.773 13.1684 103.206 12.2729L101.516 13.3431C101.759 13.7276 101.969 14.5664 101.969 16.072H103.969ZM103.206 12.2729C102.541 11.2233 101.369 10.848 100.089 10.848V12.848C101.027 12.848 101.37 13.1127 101.516 13.3431L103.206 12.2729ZM100.089 10.848C99.7061 10.848 99.3063 10.8719 98.8903 10.9181L99.1112 12.9059C99.4632 12.8668 99.7887 12.848 100.089 12.848V10.848ZM98.9453 10.9135C98.5399 10.9361 98.169 10.9704 97.8353 11.018L98.1182 12.9979C98.3818 12.9603 98.6936 12.9306 99.0562 12.9105L98.9453 10.9135ZM96.9768 12.008V25H98.9768V12.008H96.9768ZM97.9768 24H93.2087V26H97.9768V24ZM94.2087 25V8.744H92.2087V25H94.2087ZM112.372 25H111.372V26H112.372V25ZM112.372 2.824V1.824H111.372V2.824H112.372ZM127.221 2.824H128.221V1.824H127.221V2.824ZM127.221 7.016V8.016H128.221V7.016H127.221ZM117.365 7.016V6.016H116.365V7.016H117.365ZM117.365 11.656H116.365V12.656H117.365V11.656ZM126.132 11.656H127.132V10.656H126.132V11.656ZM126.132 15.848V16.848H127.132V15.848H126.132ZM117.365 15.848V14.848H116.365V15.848H117.365ZM117.365 25V26H118.365V25H117.365ZM113.372 25V2.824H111.372V25H113.372ZM112.372 3.824H127.221V1.824H112.372V3.824ZM126.221 2.824V7.016H128.221V2.824H126.221ZM127.221 6.016H117.365V8.016H127.221V6.016ZM116.365 7.016V11.656H118.365V7.016H116.365ZM117.365 12.656H126.132V10.656H117.365V12.656ZM125.132 11.656V15.848H127.132V11.656H125.132ZM126.132 14.848H117.365V16.848H126.132V14.848ZM116.365 15.848V25H118.365V15.848H116.365ZM117.365 24H112.372V26H117.365V24ZM145.283 20.2L146.226 20.5328L146.228 20.5271L145.283 20.2ZM143.619 23.016L144.346 23.7027L144.355 23.6926L143.619 23.016ZM140.995 24.808L140.61 23.8849L140.603 23.8878L140.995 24.808ZM134.211 24.808L133.819 25.7282L133.826 25.7311L134.211 24.808ZM131.619 23.016L130.883 23.6927L130.892 23.7026L131.619 23.016ZM129.923 20.2L128.984 20.5432L128.986 20.5491L129.923 20.2ZM129.923 12.936L128.992 12.5709L128.989 12.5789L128.986 12.5869L129.923 12.936ZM131.651 10.152L130.934 9.45492L130.929 9.46011L130.924 9.46538L131.651 10.152ZM134.275 8.36L133.89 7.4369L133.883 7.43984L134.275 8.36ZM140.931 8.36L140.539 9.28018L140.546 9.28308L140.931 8.36ZM143.555 10.152L142.828 10.8386V10.8386L143.555 10.152ZM145.251 12.936L144.314 13.2851L145.251 12.936ZM140.099 13.096L139.27 13.6555L139.278 13.6675L139.287 13.6792L140.099 13.096ZM135.075 13.096L135.887 13.6792L135.894 13.6695L135.075 13.096ZM135.075 20.072L134.249 20.636L134.256 20.6455L135.075 20.072ZM140.099 20.072L139.273 19.508L139.27 19.5125L140.099 20.072ZM144.859 16.552C144.859 17.7773 144.681 18.8812 144.338 19.8729L146.228 20.5271C146.653 19.3001 146.859 17.9721 146.859 16.552H144.859ZM144.34 19.8672C143.997 20.8376 143.51 21.6569 142.883 22.3394L144.355 23.6926C145.179 22.7964 145.801 21.7384 146.226 20.5328L144.34 19.8672ZM142.892 22.3294C142.268 22.9903 141.512 23.5094 140.61 23.8849L141.38 25.7311C142.526 25.2532 143.52 24.5777 144.346 23.7026L142.892 22.3294ZM140.603 23.8878C139.742 24.2543 138.748 24.448 137.603 24.448V26.448C138.976 26.448 140.242 26.215 141.387 25.7282L140.603 23.8878ZM137.603 24.448C136.482 24.448 135.484 24.2553 134.596 23.8849L133.826 25.7311C134.986 26.2141 136.249 26.448 137.603 26.448V24.448ZM134.603 23.8878C133.723 23.5134 132.974 22.9941 132.346 22.3294L130.892 23.7026C131.715 24.5739 132.694 25.2493 133.819 25.7282L134.603 23.8878ZM132.355 22.3394C131.724 21.6529 131.224 20.8279 130.86 19.8509L128.986 20.5491C129.433 21.7481 130.063 22.8005 130.883 23.6926L132.355 22.3394ZM130.862 19.8568C130.502 18.8698 130.315 17.7715 130.315 16.552H128.315C128.315 17.9778 128.534 19.3115 128.984 20.5432L130.862 19.8568ZM130.315 16.552C130.315 15.3321 130.502 14.247 130.86 13.2851L128.986 12.5869C128.534 13.801 128.315 15.1265 128.315 16.552H130.315ZM130.854 13.3011C131.239 12.3197 131.75 11.5041 132.378 10.8386L130.924 9.46538C130.102 10.3359 129.46 11.3763 128.992 12.5709L130.854 13.3011ZM132.368 10.8491C133.02 10.178 133.784 9.65574 134.667 9.28015L133.883 7.43984C132.761 7.9176 131.775 8.59001 130.934 9.45492L132.368 10.8491ZM134.66 9.28308C135.553 8.91099 136.53 8.72 137.603 8.72V6.72C136.287 6.72 135.045 6.95567 133.89 7.43692L134.66 9.28308ZM137.603 8.72C138.7 8.72 139.674 8.91196 140.539 9.28015L141.323 7.43984C140.182 6.9547 138.938 6.72 137.603 6.72V8.72ZM140.546 9.28308C141.448 9.65857 142.204 10.1777 142.828 10.8386L144.282 9.46538C143.456 8.59033 142.462 7.91477 141.316 7.43692L140.546 9.28308ZM142.828 10.8386C143.453 11.5001 143.951 12.31 144.314 13.2851L146.188 12.5869C145.741 11.386 145.108 10.3399 144.282 9.46537L142.828 10.8386ZM144.314 13.2851C144.672 14.247 144.859 15.3321 144.859 16.552H146.859C146.859 15.1265 146.64 13.801 146.188 12.5869L144.314 13.2851ZM141.995 16.552C141.995 14.9587 141.674 13.5745 140.911 12.5128L139.287 13.6792C139.719 14.2815 139.995 15.2013 139.995 16.552H141.995ZM140.928 12.5365C140.154 11.3896 139.001 10.816 137.603 10.816V12.816C138.381 12.816 138.892 13.0957 139.27 13.6555L140.928 12.5365ZM137.603 10.816C136.206 10.816 135.05 11.3881 134.256 12.5225L135.894 13.6695C136.295 13.0973 136.824 12.816 137.603 12.816V10.816ZM134.263 12.5128C133.5 13.5745 133.179 14.9587 133.179 16.552H135.179C135.179 15.2013 135.455 14.2815 135.887 13.6792L134.263 12.5128ZM133.179 16.552C133.179 18.1493 133.502 19.5419 134.249 20.636L135.901 19.508C135.453 18.8528 135.179 17.8987 135.179 16.552H133.179ZM134.256 20.6455C135.05 21.7799 136.206 22.352 137.603 22.352V20.352C136.824 20.352 136.295 20.0707 135.894 19.4985L134.256 20.6455ZM137.603 22.352C139.001 22.352 140.154 21.7784 140.928 20.6315L139.27 19.5125C138.892 20.0723 138.381 20.352 137.603 20.352V22.352ZM140.925 20.636C141.672 19.5419 141.995 18.1493 141.995 16.552H139.995C139.995 17.8987 139.721 18.8528 139.273 19.508L140.925 20.636ZM164.721 20.2L165.664 20.5328L165.665 20.5271L164.721 20.2ZM163.057 23.016L163.784 23.7027L163.793 23.6926L163.057 23.016ZM160.432 24.808L160.048 23.8849L160.041 23.8878L160.432 24.808ZM153.648 24.808L153.257 25.7282L153.264 25.7311L153.648 24.808ZM151.057 23.016L150.32 23.6927L150.329 23.7026L151.057 23.016ZM149.361 20.2L148.421 20.5432L148.423 20.5491L149.361 20.2ZM149.361 12.936L148.43 12.5709L148.426 12.5789L148.423 12.5869L149.361 12.936ZM151.089 10.152L150.372 9.45492L150.366 9.46011L150.361 9.46538L151.089 10.152ZM153.712 8.36L153.328 7.4369L153.321 7.43984L153.712 8.36ZM160.368 8.36L159.977 9.28018L159.984 9.28308L160.368 8.36ZM162.992 10.152L162.265 10.8386V10.8386L162.992 10.152ZM164.689 12.936L163.751 13.2851L164.689 12.936ZM159.536 13.096L158.708 13.6555L158.716 13.6675L158.724 13.6792L159.536 13.096ZM154.512 13.096L155.325 13.6792L155.332 13.6695L154.512 13.096ZM154.512 20.072L153.687 20.636L153.693 20.6455L154.512 20.072ZM159.536 20.072L158.711 19.508L158.708 19.5125L159.536 20.072ZM164.297 16.552C164.297 17.7773 164.119 18.8812 163.776 19.8729L165.665 20.5271C166.09 19.3001 166.297 17.9721 166.297 16.552H164.297ZM163.778 19.8672C163.435 20.8376 162.947 21.6569 162.32 22.3394L163.793 23.6926C164.616 22.7964 165.238 21.7384 165.663 20.5328L163.778 19.8672ZM162.329 22.3294C161.705 22.9903 160.949 23.5094 160.048 23.8849L160.817 25.7311C161.964 25.2532 162.957 24.5777 163.784 23.7026L162.329 22.3294ZM160.041 23.8878C159.18 24.2543 158.185 24.448 157.04 24.448V26.448C158.413 26.448 159.68 26.215 160.824 25.7282L160.041 23.8878ZM157.04 24.448C155.92 24.448 154.922 24.2553 154.033 23.8849L153.264 25.7311C154.423 26.2141 155.686 26.448 157.04 26.448V24.448ZM154.04 23.8878C153.16 23.5134 152.411 22.9941 151.784 22.3294L150.329 23.7026C151.152 24.5739 152.132 25.2493 153.257 25.7282L154.04 23.8878ZM151.793 22.3394C151.162 21.6529 150.662 20.8279 150.298 19.8509L148.423 20.5491C148.87 21.7481 149.5 22.8005 150.32 23.6926L151.793 22.3394ZM150.3 19.8568C149.939 18.8698 149.753 17.7715 149.753 16.552H147.753C147.753 17.9778 147.971 19.3115 148.421 20.5432L150.3 19.8568ZM149.753 16.552C149.753 15.3321 149.939 14.247 150.298 13.2851L148.423 12.5869C147.971 13.801 147.753 15.1265 147.753 16.552H149.753ZM150.291 13.3011C150.676 12.3197 151.187 11.5041 151.816 10.8386L150.361 9.46538C149.539 10.3359 148.898 11.3763 148.43 12.5709L150.291 13.3011ZM151.805 10.8491C152.458 10.178 153.221 9.65574 154.104 9.28015L153.321 7.43984C152.198 7.9176 151.212 8.59001 150.372 9.45492L151.805 10.8491ZM154.097 9.28308C154.99 8.91099 155.968 8.72 157.04 8.72V6.72C155.724 6.72 154.483 6.95567 153.328 7.43692L154.097 9.28308ZM157.04 8.72C158.138 8.72 159.112 8.91196 159.977 9.28015L160.76 7.43984C159.62 6.9547 158.375 6.72 157.04 6.72V8.72ZM159.984 9.28308C160.885 9.65857 161.641 10.1777 162.265 10.8386L163.72 9.46538C162.893 8.59033 161.9 7.91477 160.753 7.43692L159.984 9.28308ZM162.265 10.8386C162.89 11.5001 163.388 12.31 163.751 13.2851L165.626 12.5869C165.178 11.386 164.545 10.3399 163.72 9.46537L162.265 10.8386ZM163.751 13.2851C164.11 14.247 164.297 15.3321 164.297 16.552H166.297C166.297 15.1265 166.078 13.801 165.626 12.5869L163.751 13.2851ZM161.432 16.552C161.432 14.9587 161.111 13.5745 160.349 12.5128L158.724 13.6792C159.157 14.2815 159.432 15.2013 159.432 16.552H161.432ZM160.365 12.5365C159.591 11.3896 158.438 10.816 157.04 10.816V12.816C157.819 12.816 158.33 13.0957 158.708 13.6555L160.365 12.5365ZM157.04 10.816C155.643 10.816 154.487 11.3881 153.693 12.5225L155.332 13.6695C155.732 13.0973 156.262 12.816 157.04 12.816V10.816ZM153.7 12.5128C152.938 13.5745 152.617 14.9587 152.617 16.552H154.617C154.617 15.2013 154.892 14.2815 155.325 13.6792L153.7 12.5128ZM152.617 16.552C152.617 18.1493 152.94 19.5419 153.687 20.636L155.338 19.508C154.891 18.8528 154.617 17.8987 154.617 16.552H152.617ZM153.693 20.6455C154.487 21.7799 155.643 22.352 157.04 22.352V20.352C156.262 20.352 155.732 20.0707 155.332 19.4985L153.693 20.6455ZM157.04 22.352C158.438 22.352 159.591 21.7784 160.365 20.6315L158.708 19.5125C158.33 20.0723 157.819 20.352 157.04 20.352V22.352ZM160.362 20.636C161.109 19.5419 161.432 18.1493 161.432 16.552H159.432C159.432 17.8987 159.158 18.8528 158.711 19.508L160.362 20.636ZM174.046 20.008L174.851 19.4141L174.046 20.008ZM178.174 21.32L178.233 22.3183L178.262 22.3166L178.291 22.3132L178.174 21.32ZM179.07 21.192L179.249 22.1759L180.07 22.0266V21.192H179.07ZM179.07 12.52H180.07V11.974L179.611 11.6788L179.07 12.52ZM177.886 12.04L177.623 13.0048L177.634 13.0076L177.886 12.04ZM183.838 24.456L184.125 25.4138L184.838 25.2V24.456H183.838ZM182.366 24.84L182.555 25.822L182.573 25.8185L182.591 25.8144L182.366 24.84ZM180.606 25.128L180.469 24.1374L180.465 24.1381L180.606 25.128ZM178.75 25.32L178.683 24.3222L178.665 24.3234L178.647 24.3253L178.75 25.32ZM170.494 23.08L169.777 23.7771L169.787 23.7871L170.494 23.08ZM168.766 20.328L167.823 20.6608L167.827 20.6721L167.831 20.6832L168.766 20.328ZM168.702 13L169.656 13.2993L169.658 13.2941L168.702 13ZM170.174 10.184L169.406 9.54381L170.174 10.184ZM172.51 8.424L172.114 7.50591L172.106 7.50931L172.51 8.424ZM177.47 8.008L177.227 8.97819L177.237 8.98039L177.47 8.008ZM179.07 8.552L178.667 9.46731L180.07 10.0845V8.552H179.07ZM179.07 0.935999L178.911 -0.0512757L178.07 0.0841832V0.935999H179.07ZM183.838 0.167999H184.838V-1.00596L183.679 -0.819275L183.838 0.167999ZM172.054 16.456C172.054 18.0734 172.418 19.486 173.241 20.6019L174.851 19.4141C174.352 18.738 174.054 17.7826 174.054 16.456H172.054ZM173.241 20.6019C174.125 21.7985 175.432 22.352 176.99 22.352V20.352C175.945 20.352 175.29 20.0094 174.851 19.4141L173.241 20.6019ZM176.99 22.352C177.433 22.352 177.847 22.3409 178.233 22.3183L178.115 20.3217C177.775 20.3417 177.4 20.352 176.99 20.352V22.352ZM178.291 22.3132C178.665 22.2692 178.986 22.2237 179.249 22.1759L178.891 20.2081C178.685 20.2456 178.409 20.2855 178.057 20.3268L178.291 22.3132ZM180.07 21.192V12.52H178.07V21.192H180.07ZM179.611 11.6788C179.194 11.411 178.691 11.2166 178.138 11.0724L177.634 13.0076C178.062 13.1194 178.349 13.245 178.529 13.3612L179.611 11.6788ZM178.149 11.0752C177.593 10.9236 177.025 10.848 176.446 10.848V12.848C176.849 12.848 177.24 12.9004 177.623 13.0048L178.149 11.0752ZM176.446 10.848C175.064 10.848 173.887 11.3337 173.097 12.4072C172.349 13.4234 172.054 14.8267 172.054 16.456H174.054C174.054 15.0133 174.325 14.1126 174.707 13.5928C175.048 13.1303 175.566 12.848 176.446 12.848V10.848ZM183.551 23.4982C183.149 23.6186 182.68 23.7412 182.141 23.8656L182.591 25.8144C183.161 25.6828 183.673 25.5494 184.125 25.4138L183.551 23.4982ZM182.177 23.858C181.642 23.961 181.072 24.0542 180.469 24.1374L180.743 26.1186C181.377 26.0311 181.981 25.9323 182.555 25.822L182.177 23.858ZM180.465 24.1381C179.894 24.2196 179.3 24.2811 178.683 24.3222L178.817 26.3178C179.48 26.2736 180.124 26.207 180.747 26.118L180.465 24.1381ZM178.647 24.3253C178.06 24.386 177.497 24.416 176.958 24.416V26.416C177.571 26.416 178.203 26.382 178.853 26.3147L178.647 24.3253ZM176.958 24.416C175.668 24.416 174.552 24.2274 173.595 23.8709L172.897 25.7451C174.116 26.1992 175.475 26.416 176.958 26.416V24.416ZM173.595 23.8709C172.628 23.5106 171.837 23.0084 171.201 22.3729L169.787 23.7871C170.645 24.6449 171.688 25.2947 172.897 25.7451L173.595 23.8709ZM171.211 22.3829C170.566 21.7191 170.061 20.9203 169.701 19.9728L167.831 20.6832C168.282 21.869 168.929 22.9049 169.777 23.7771L171.211 22.3829ZM169.709 19.9952C169.368 19.0301 169.19 17.9289 169.19 16.68H167.19C167.19 18.1191 167.396 19.4499 167.823 20.6608L169.709 19.9952ZM169.19 16.68C169.19 15.3968 169.351 14.2736 169.656 13.2993L167.748 12.7007C167.371 13.9024 167.19 15.2325 167.19 16.68H169.19ZM169.658 13.2941C169.966 12.2912 170.4 11.4753 170.942 10.8242L169.406 9.54381C168.668 10.4287 168.12 11.4901 167.746 12.7059L169.658 13.2941ZM170.942 10.8242C171.483 10.1749 172.137 9.68198 172.914 9.33869L172.106 7.50931C171.048 7.97669 170.145 8.65711 169.406 9.54381L170.942 10.8242ZM172.906 9.34206C173.701 8.99911 174.629 8.816 175.71 8.816V6.816C174.402 6.816 173.197 7.03822 172.114 7.50594L172.906 9.34206ZM175.71 8.816C176.309 8.816 176.812 8.87422 177.227 8.97814L177.713 7.03786C177.104 6.88577 176.433 6.816 175.71 6.816V8.816ZM177.237 8.98039C177.708 9.09362 178.185 9.2552 178.667 9.46731L179.473 7.63669C178.888 7.37946 178.298 7.17838 177.703 7.03561L177.237 8.98039ZM180.07 8.552V0.935999H178.07V8.552H180.07ZM179.229 1.92327L183.997 1.15527L183.679 -0.819275L178.911 -0.0512757L179.229 1.92327ZM182.838 0.167999V24.456H184.838V0.167999H182.838ZM194.99 21.32L195.416 22.2248L194.99 21.32ZM194.831 19.336L194.294 20.1797L194.308 20.1885L194.322 20.1969L194.831 19.336ZM192.686 18.344L193.04 17.4085L193.035 17.4066L192.686 18.344ZM190.639 17.48L190.191 18.3745L190.204 18.3806L190.639 17.48ZM189.102 16.424L188.395 17.1311L188.404 17.1402L188.414 17.149L189.102 16.424ZM188.111 14.92L189.037 14.5427L188.111 14.92ZM189.518 9.096L190.134 9.88381L189.518 9.096ZM197.294 8.008L197.094 8.98771L197.105 8.98991L197.116 8.99187L197.294 8.008ZM199.535 8.584L200.51 8.80271L200.699 7.96049L199.893 7.65065L199.535 8.584ZM198.702 12.296L198.375 13.241L199.433 13.6072L199.678 12.5147L198.702 12.296ZM196.878 11.784L196.651 12.7579L196.658 12.7594L196.878 11.784ZM192.943 13.768L192.329 14.5574L192.357 14.5798L192.388 14.6L192.943 13.768ZM193.71 14.216L193.24 15.0984L193.274 15.1166L193.31 15.1322L193.71 14.216ZM194.99 14.728L194.639 15.6644L194.646 15.6667L194.99 14.728ZM197.583 15.88L197.092 16.7516L197.103 16.7575L197.113 16.7631L197.583 15.88ZM199.182 17.096L198.423 17.7468L198.44 17.7662L198.458 17.7847L199.182 17.096ZM200.014 18.536L199.052 18.8056L199.056 18.8233L199.062 18.8408L200.014 18.536ZM198.383 24.168L197.821 23.3403L197.815 23.3448L198.383 24.168ZM189.359 25.064L189.106 26.0316L189.111 26.0329L189.359 25.064ZM187.311 24.424L186.331 24.2217L186.168 25.0106L186.904 25.3378L187.311 24.424ZM188.111 20.552L188.478 19.6218L187.372 19.1853L187.131 20.3497L188.111 20.552ZM190.607 21.32L190.387 22.2956L190.399 22.2982L190.41 22.3006L190.607 21.32ZM193.135 22.576C194.022 22.576 194.837 22.4974 195.416 22.2248L194.565 20.4152C194.419 20.4839 193.996 20.576 193.135 20.576V22.576ZM195.416 22.2248C195.776 22.0554 196.076 21.7876 196.275 21.4248C196.468 21.0743 196.535 20.6923 196.535 20.328H194.535C194.535 20.4544 194.511 20.483 194.522 20.4632C194.527 20.4526 194.538 20.4389 194.551 20.4266C194.564 20.4148 194.571 20.4122 194.565 20.4152L195.416 22.2248ZM196.535 20.328C196.535 19.4522 195.972 18.8488 195.339 18.4751L194.322 20.1969C194.475 20.2874 194.53 20.3522 194.543 20.3707C194.548 20.3781 194.545 20.3749 194.54 20.362C194.536 20.3485 194.535 20.3357 194.535 20.328H196.535ZM195.367 18.4923C194.811 18.1381 194.02 17.7788 193.04 17.4085L192.333 19.2795C193.273 19.6346 193.912 19.9366 194.294 20.1797L195.367 18.4923ZM193.035 17.4066C192.313 17.1385 191.66 16.8625 191.073 16.5794L190.204 18.3806C190.855 18.6948 191.567 18.9948 192.338 19.2814L193.035 17.4066ZM191.086 16.5856C190.565 16.3253 190.137 16.0278 189.791 15.699L188.414 17.149C188.921 17.6309 189.517 18.0374 190.191 18.3744L191.086 16.5856ZM189.81 15.7169C189.48 15.3874 189.223 14.9992 189.037 14.5427L187.184 15.2973C187.468 15.9928 187.872 16.6073 188.395 17.1311L189.81 15.7169ZM189.037 14.5427C188.863 14.1168 188.758 13.5587 188.758 12.84H186.758C186.758 13.7427 186.889 14.5712 187.184 15.2973L189.037 14.5427ZM188.758 12.84C188.758 11.5477 189.22 10.5988 190.134 9.88381L188.903 8.30819C187.47 9.42782 186.758 10.975 186.758 12.84H188.758ZM190.134 9.88381C191.076 9.14743 192.443 8.72 194.35 8.72V6.72C192.162 6.72 190.307 7.2099 188.903 8.30819L190.134 9.88381ZM194.35 8.72C195.312 8.72 196.226 8.81009 197.094 8.98771L197.495 7.02828C196.486 6.82191 195.437 6.72 194.35 6.72V8.72ZM197.116 8.99187C198.025 9.15719 198.703 9.33572 199.176 9.51735L199.893 7.65065C199.256 7.40562 198.441 7.20014 197.473 7.02413L197.116 8.99187ZM198.559 8.36529L197.727 12.0773L199.678 12.5147L200.51 8.80271L198.559 8.36529ZM199.03 11.351C198.435 11.1452 197.791 10.9648 197.099 10.8086L196.658 12.7594C197.289 12.9018 197.861 13.0628 198.375 13.241L199.03 11.351ZM197.106 10.8102C196.376 10.64 195.573 10.56 194.702 10.56V12.56C195.454 12.56 196.101 12.6294 196.651 12.7578L197.106 10.8102ZM194.702 10.56C193.896 10.56 193.131 10.6667 192.536 10.9984C192.223 11.1727 191.942 11.4175 191.744 11.7486C191.545 12.0811 191.462 12.4457 191.462 12.808H193.462C193.462 12.7543 193.473 12.7549 193.461 12.7754C193.449 12.7945 193.449 12.7793 193.509 12.7456C193.66 12.6613 194.016 12.56 194.702 12.56V10.56ZM191.462 12.808C191.462 13.1112 191.513 13.4196 191.639 13.7139L193.478 12.9261C193.476 12.9217 193.462 12.8888 193.462 12.808H191.462ZM191.639 13.7139C191.795 14.0772 192.064 14.3518 192.329 14.5574L193.556 12.9786C193.502 12.9359 193.473 12.9066 193.462 12.8932C193.45 12.8799 193.462 12.8903 193.478 12.9261L191.639 13.7139ZM192.388 14.6C192.618 14.7534 192.905 14.9199 193.24 15.0984L194.181 13.3336C193.876 13.1707 193.651 13.0386 193.497 12.9359L192.388 14.6ZM193.31 15.1322C193.673 15.2911 194.118 15.4687 194.639 15.6643L195.342 13.7917C194.839 13.6033 194.431 13.4395 194.111 13.2998L193.31 15.1322ZM194.646 15.6667C195.66 16.0392 196.471 16.4022 197.092 16.7516L198.073 15.0084C197.329 14.5898 196.412 14.1848 195.335 13.7893L194.646 15.6667ZM197.113 16.7631C197.718 17.0844 198.141 17.4181 198.423 17.7468L199.942 16.4452C199.456 15.8779 198.812 15.4009 198.052 14.9969L197.113 16.7631ZM198.458 17.7847C198.758 18.1008 198.949 18.4391 199.052 18.8056L200.977 18.2664C200.781 17.5662 200.418 16.9445 199.908 16.4072L198.458 17.7847ZM199.062 18.8408C199.194 19.254 199.271 19.7661 199.271 20.392H201.271C201.271 19.6099 201.176 18.8846 200.967 18.2312L199.062 18.8408ZM199.271 20.392C199.271 21.7612 198.776 22.6928 197.821 23.3403L198.944 24.9957C200.506 23.9365 201.271 22.3508 201.271 20.392H199.271ZM197.815 23.3448C196.81 24.0375 195.281 24.448 193.102 24.448V26.448C195.489 26.448 197.48 26.0052 198.95 24.9912L197.815 23.3448ZM193.102 24.448C191.659 24.448 190.501 24.3236 189.606 24.0951L189.111 26.0329C190.222 26.3164 191.559 26.448 193.102 26.448V24.448ZM189.611 24.0964C188.629 23.8403 188.018 23.6442 187.717 23.5102L186.904 25.3378C187.371 25.5451 188.125 25.7757 189.106 26.0316L189.611 24.0964ZM188.29 24.6263L189.09 20.7543L187.131 20.3497L186.331 24.2217L188.29 24.6263ZM187.743 21.4822C188.602 21.8212 189.484 22.0923 190.387 22.2956L190.826 20.3444C190.023 20.1637 189.24 19.9228 188.478 19.6218L187.743 21.4822ZM190.41 22.3006C191.325 22.4836 192.234 22.576 193.135 22.576V20.576C192.371 20.576 191.594 20.4978 190.803 20.3394L190.41 22.3006Z" fill="#5F693F"/>
</g>
<defs>
<filter id="filter0_d_3_159" x="0.559998" y="0.167999" width="203.711" height="38.752" filterUnits="userSpaceOnUse" color-interpolation-filters="sRGB">
<feFlood flood-opacity="0" result="BackgroundImageFix"/>
<feColorMatrix in="SourceAlpha" type="matrix" values="0 0 0 0 0 0 0 0 0 0 0 0 0 0 0 0 0 0 127 0" result="hardAlpha"/>
<feOffset dy="4"/>
<feGaussianBlur stdDeviation="2"/>
<feComposite in2="hardAlpha" operator="out"/>
<feColorMatrix type="matrix" values="0 0 0 0 0 0 0 0 0 0 0 0 0 0 0 0 0 0 0.25 0"/>
<feBlend mode="normal" in2="BackgroundImageFix" result="effect1_dropShadow_3_159"/>
<feBlend mode="normal" in="SourceGraphic" in2="effect1_dropShadow_3_159" result="shape"/>
</filter>
</defs>
</svg>
