<svg width="455" height="455" viewBox="0 0 455 455" fill="none" xmlns="http://www.w3.org/2000/svg">
<path d="M334.142 309.604V138.978H120.86V309.604C120.86 309.604 184.345 280.872 248.83 309.604C313.315 338.336 334.142 309.604 334.142 309.604Z" fill="#C8546F"/>
<path d="M92.4157 238.513H7.10913V259.841H92.4157V238.513Z" fill="#FEB860"/>
<path d="M447.884 238.513H362.577V259.841H447.884V238.513Z" fill="#FEB860"/>
<path d="M440.782 103.438H419.453V160.313H440.782V103.438Z" fill="#9B4573"/>
<path d="M35.5483 103.438H14.2196V160.313H35.5483V103.438Z" fill="#9B4573"/>
<path d="M170.626 138.978C154.919 138.978 142.188 126.247 142.188 110.542H199.064C199.064 126.247 186.331 138.978 170.626 138.978Z" fill="#FEC986"/>
<path d="M284.376 138.978C268.67 138.978 255.938 126.247 255.938 110.542H312.814C312.814 126.247 300.081 138.978 284.376 138.978Z" fill="#FEC986"/>
<path d="M234.61 160.453H142.182V174.382H234.61V160.453Z" fill="#1D1D1B"/>
<path d="M270.155 160.453H248.826V174.382H270.155V160.453Z" fill="#1D1D1B"/>
<path d="M447.746 344.602V266.802H454.855V231.544H447.746V96.4685H412.489V167.273H433.818V231.547H355.615V266.804H362.724V344.605H312.669V328.166C331.466 324.686 339.229 314.455 339.781 313.693L341.106 311.864V132.014H312.496C315.711 127.815 318.009 122.88 319.086 117.506H327.032V103.578H241.72V117.506H249.665C250.742 122.88 253.04 127.815 256.256 132.014H198.744C201.96 127.815 204.258 122.88 205.335 117.506H213.28V103.578H127.97V117.506H135.915C136.992 122.88 139.29 127.815 142.506 132.014H113.895V309.604L113.902 320.369L123.723 315.954C123.927 315.862 130.889 312.804 142.331 309.788V344.603H92.2777V266.803H99.3868V231.546H21.1824V167.271H42.5111V96.4685H7.25406V231.547H0.144942V266.804H7.25406V344.605H0V358.533H455V344.605L447.746 344.602ZM426.419 153.343V110.397H433.819V153.343H426.419ZM21.1838 110.397H28.5842V153.343H21.1838V110.397ZM440.927 245.476V252.731H433.818V252.876H376.652V252.731H369.543V245.476H440.927ZM376.652 266.803H433.818V344.603H376.652V266.803ZM264.069 117.506H304.684C301.784 125.936 293.779 132.014 284.376 132.014C274.973 132.014 266.967 125.936 264.069 117.506ZM150.319 117.506H190.934C188.034 125.936 180.03 132.014 170.627 132.014C161.224 132.014 153.219 125.936 150.319 117.506ZM127.825 145.942H327.178V306.864C325.09 308.759 320.534 312.064 312.632 313.966C307.504 315.202 300.496 315.919 291.34 314.919V266.946H277.411V312.361C275.048 311.766 272.582 311.07 270.013 310.262V295.384H256.084V305.141C254.635 304.538 253.167 303.911 251.663 303.242C230.892 293.986 210.347 290.399 191.808 289.867V274.057H177.88V290.016C175.36 290.143 172.89 290.318 170.481 290.539V259.837H156.552V292.342C144.485 294.361 134.581 297.21 127.825 299.497V145.942ZM156.261 306.7C179.685 302.463 212.869 301.206 245.994 315.966C267.883 325.719 285.222 329.17 298.739 329.308V344.605H156.261V306.7ZM85.4571 252.73H78.348V252.875H21.1824V252.73H14.0733V245.474H85.4571V252.73ZM21.1838 266.803H78.3494V344.603H21.1838V266.803Z" fill="#1D1D1B"/>
</svg>
