<svg width="92" height="92" viewBox="0 0 92 92" fill="none" xmlns="http://www.w3.org/2000/svg">
<g filter="url(#filter0_di_117_30)">
<circle cx="46" cy="42" r="40" fill="#EEEEEE" shape-rendering="crispEdges"/>
<circle cx="46" cy="42" r="40" stroke="#8A8A8A" stroke-opacity="0.8" stroke-width="3" shape-rendering="crispEdges"/>
</g>
<g filter="url(#filter1_d_117_30)">
<path d="M42.7797 13.528C44.7365 11.5795 47.9023 11.5863 49.8507 13.5431L74.4699 38.2679C76.4183 40.2247 76.4116 43.3905 74.4548 45.3389L50.2181 69.472C48.2613 71.4205 45.0955 71.4137 43.1471 69.4569L18.5279 44.7321C16.5795 42.7753 16.5862 39.6095 18.543 37.6611L42.7797 13.528Z" fill="#D84747"/>
</g>
<path d="M54.5 49V26" stroke="black" stroke-width="3"/>
<path d="M53 21H57.5V25.75C57.5 26.9926 56.4926 28 55.25 28C54.0074 28 53 26.9926 53 25.75V21Z" fill="black"/>
<path d="M53 9.94861C53 9.42471 53.4247 9 53.9486 9C54.3733 9 54.7463 9.28232 54.8616 9.6911L56.5 15.5L57.5216 20.6078C57.7691 21.8454 56.8225 23 55.5604 23H55C53.8954 23 53 22.1046 53 21V16V9.94861Z" fill="black"/>
<path d="M37.5 49V24.1351" stroke="black" stroke-width="3"/>
<path d="M33 18H42V21C42 23.2091 40.2091 25 38 25H37C34.7909 25 33 23.2091 33 21V18Z" fill="black"/>
<path d="M38.5 9H39L39.5 19H38L38.5 9Z" fill="black"/>
<path d="M41 9H41.5L42 19H40.5L41 9Z" fill="black"/>
<path d="M33.5 9H34L34.5 19H33L33.5 9Z" fill="black"/>
<path d="M36 9H36.5L37 19H35.5L36 9Z" fill="black"/>
<defs>
<filter id="filter0_di_117_30" x="0.5" y="0.5" width="91" height="91" filterUnits="userSpaceOnUse" color-interpolation-filters="sRGB">
<feFlood flood-opacity="0" result="BackgroundImageFix"/>
<feColorMatrix in="SourceAlpha" type="matrix" values="0 0 0 0 0 0 0 0 0 0 0 0 0 0 0 0 0 0 127 0" result="hardAlpha"/>
<feOffset dy="4"/>
<feGaussianBlur stdDeviation="2"/>
<feComposite in2="hardAlpha" operator="out"/>
<feColorMatrix type="matrix" values="0 0 0 0 0 0 0 0 0 0 0 0 0 0 0 0 0 0 0.25 0"/>
<feBlend mode="normal" in2="BackgroundImageFix" result="effect1_dropShadow_117_30"/>
<feBlend mode="normal" in="SourceGraphic" in2="effect1_dropShadow_117_30" result="shape"/>
<feColorMatrix in="SourceAlpha" type="matrix" values="0 0 0 0 0 0 0 0 0 0 0 0 0 0 0 0 0 0 127 0" result="hardAlpha"/>
<feOffset dy="4"/>
<feGaussianBlur stdDeviation="2"/>
<feComposite in2="hardAlpha" operator="arithmetic" k2="-1" k3="1"/>
<feColorMatrix type="matrix" values="0 0 0 0 0 0 0 0 0 0 0 0 0 0 0 0 0 0 0.25 0"/>
<feBlend mode="normal" in2="shape" result="effect2_innerShadow_117_30"/>
</filter>
<filter id="filter1_d_117_30" x="13.071" y="12.071" width="66.8557" height="66.8579" filterUnits="userSpaceOnUse" color-interpolation-filters="sRGB">
<feFlood flood-opacity="0" result="BackgroundImageFix"/>
<feColorMatrix in="SourceAlpha" type="matrix" values="0 0 0 0 0 0 0 0 0 0 0 0 0 0 0 0 0 0 127 0" result="hardAlpha"/>
<feOffset dy="4"/>
<feGaussianBlur stdDeviation="2"/>
<feComposite in2="hardAlpha" operator="out"/>
<feColorMatrix type="matrix" values="0 0 0 0 0 0 0 0 0 0 0 0 0 0 0 0 0 0 0.25 0"/>
<feBlend mode="normal" in2="BackgroundImageFix" result="effect1_dropShadow_117_30"/>
<feBlend mode="normal" in="SourceGraphic" in2="effect1_dropShadow_117_30" result="shape"/>
</filter>
</defs>
</svg>
